<?xml version="1.0" standalone="no"?>
<!DOCTYPE svg PUBLIC "-//W3C//DTD SVG 20010904//EN"
 "http://www.w3.org/TR/2001/REC-SVG-20010904/DTD/svg10.dtd">
<svg version="1.0" xmlns="http://www.w3.org/2000/svg"
 width="198.000000pt" height="148.000000pt" viewBox="0 0 198.000000 148.000000"
 preserveAspectRatio="xMidYMid meet">

<g transform="translate(0.000000,148.000000) scale(0.100000,-0.100000)"
fill="#000000" stroke="none">
<path d="M0 1260 l0 -220 394 0 395 0 -35 58 c-34 56 -66 142 -57 152 15 16
133 -156 133 -194 0 -8 5 -16 11 -18 7 -2 5 -16 -7 -41 l-18 -37 -408 0 -408
0 0 -220 0 -220 408 0 408 0 18 -36 c15 -32 15 -38 2 -48 -8 -6 -32 -42 -54
-80 -22 -38 -42 -63 -46 -57 -4 6 9 38 28 71 20 34 36 63 36 66 0 2 -180 4
-400 4 l-400 0 0 -220 0 -220 990 0 990 0 0 220 0 220 -400 0 c-220 0 -400 -2
-400 -4 0 -3 16 -32 36 -66 19 -33 32 -65 28 -71 -4 -6 -24 19 -46 57 -22 38
-46 74 -54 80 -13 10 -13 16 2 48 l18 36 408 0 408 0 0 220 0 220 -408 0 -408
0 -18 37 c-12 25 -14 39 -7 41 6 2 11 10 11 18 0 38 118 210 133 194 9 -10
-23 -96 -57 -152 l-35 -58 395 0 394 0 0 220 0 220 -990 0 -990 0 0 -220z
m979 -272 c-1 -176 -1 -182 -17 -148 -20 44 -22 226 -4 288 7 23 15 42 17 42
3 0 5 -82 4 -182z m52 94 c14 -74 6 -195 -15 -244 -13 -30 -14 -18 -15 152 -1
190 7 213 30 92z m-19 -299 c22 -19 24 -66 4 -82 -13 -11 -13 -18 1 -54 22
-59 23 -247 1 -302 -16 -39 -17 -35 -17 148 -1 117 -5 187 -11 187 -6 0 -10
-70 -11 -187 0 -183 -1 -187 -17 -148 -22 55 -21 243 1 302 14 36 14 43 1 54
-19 16 -18 58 3 81 20 22 22 22 45 1z"/>
</g>
</svg>
